<svg xmlns="http://www.w3.org/2000/svg" version="1.1" xmlns:xlink="http://www.w3.org/1999/xlink" xmlns:svgjs="http://svgjs.dev/svgjs" width="2000" height="1500" viewBox="0 0 2000 1500"><rect width="2000" height="1500" fill="#ffffff"></rect><g transform="matrix(0.75,0,0,0.75,249.090909090909,282.7536437246963)"><svg viewBox="0 0 396 247" data-background-color="#ffffff" preserveAspectRatio="xMidYMid meet" height="1247" width="2000" xmlns="http://www.w3.org/2000/svg" xmlns:xlink="http://www.w3.org/1999/xlink"><g id="tight-bounds" transform="matrix(1,0,0,1,0.2400000000000091,-0.09999999999999432)"><svg viewBox="0 0 395.52 247.2" height="247.2" width="395.52"><g><svg></svg></g><g><svg viewBox="0 0 395.52 247.2" height="247.2" width="395.52"><g transform="matrix(1,0,0,1,75.54432,91.46500518052025)"><svg viewBox="0 0 244.43135999999998 64.2699896389595" height="64.2699896389595" width="244.43135999999998"><g><svg viewBox="0 0 244.43135999999998 64.2699896389595" height="64.2699896389595" width="244.43135999999998"><g><svg viewBox="0 0 244.43135999999998 64.2699896389595" height="64.2699896389595" width="244.43135999999998"><g><svg viewBox="0 0 244.43135999999998 64.2699896389595" height="64.2699896389595" width="244.43135999999998"><g id="textblocktransform"><svg viewBox="0 0 244.43135999999998 64.2699896389595" height="64.2699896389595" width="244.43135999999998" id="textblock"><g><svg viewBox="0 0 244.43135999999998 36.15127154421637" height="36.15127154421637" width="244.43135999999998"><g transform="matrix(1,0,0,1,0,0)"><svg width="244.43135999999998" viewBox="4.4 -37.9 260.63 38.55" height="36.15127154421637" data-palette-color="#336a86"><path d="M4.4 0L4.4-34.1 8.4-34.1 26.3-7.05 26.4-7.05Q26.3-8.5 26.25-10.15L26.25-10.15Q26.15-11.55 26.13-13.38 26.1-15.2 26.1-17.1L26.1-17.1 26.1-34.1 30.1-34.1 30.1 0 26.1 0 8.2-27.15 8.1-27.15Q8.15-25.65 8.25-24L8.25-24Q8.3-22.55 8.35-20.75 8.4-18.95 8.4-17.05L8.4-17.05 8.4 0 4.4 0ZM40.55-12.45L40.55-12.45Q40.55-7.6 42.72-5.23 44.9-2.85 48.6-2.85L48.6-2.85Q52.25-2.85 54.3-5.2 56.35-7.55 56.35-12.25L56.35-12.25Q56.35-17.25 54.17-19.7 52-22.15 48.25-22.15L48.25-22.15Q44.5-22.15 42.52-19.73 40.55-17.3 40.55-12.45ZM36.3-12.5L36.3-12.5Q36.3-16.3 37.5-18.82 38.7-21.35 40.55-22.88 42.4-24.4 44.52-25.03 46.65-25.65 48.55-25.65L48.55-25.65Q50.35-25.65 52.47-25.08 54.6-24.5 56.4-23.03 58.2-21.55 59.4-19.07 60.6-16.6 60.6-12.8L60.6-12.8Q60.6-8.85 59.37-6.25 58.15-3.65 56.3-2.13 54.45-0.6 52.3 0.03 50.15 0.65 48.3 0.65L48.3 0.65Q46.4 0.65 44.3 0.05 42.2-0.55 40.42-2.02 38.65-3.5 37.47-6.05 36.3-8.6 36.3-12.5ZM68.05-32.15L72.05-32.65 72.05-25.15 79.3-25.15 79.3-21.9 72.05-21.9 72.05-8.55Q72.05-6.9 72.12-5.8 72.2-4.7 72.45-4.05 72.7-3.4 73.15-3.13 73.59-2.85 74.3-2.85L74.3-2.85Q76.2-2.9 78.7-4.25L78.7-4.25 79.9-1.2Q78.25-0.1 76.82 0.28 75.4 0.65 74 0.65L74 0.65Q70.7 0.65 69.37-1.23 68.05-3.1 68.05-7.45L68.05-7.45 68.05-21.9 63.45-21.9 63.45-25.15 68.05-25.15 68.05-32.15ZM102.04-3.95L102.79-0.6Q101.64-0.25 100.42 0 99.19 0.25 97.72 0.45 96.24 0.65 94.64 0.65L94.64 0.65Q92.14 0.65 89.99-0.05 87.84-0.75 86.24-2.3 84.64-3.85 83.72-6.33 82.79-8.8 82.79-12.4L82.79-12.4Q82.79-15.65 83.69-18.13 84.59-20.6 86.17-22.28 87.74-23.95 89.87-24.8 91.99-25.65 94.49-25.65L94.49-25.65Q96.94-25.65 98.74-24.7 100.54-23.75 101.72-22.13 102.89-20.5 103.47-18.32 104.04-16.15 104.04-13.75L104.04-13.75 103.29-11.55 87.14-11.55Q87.14-10 87.54-8.45 87.94-6.9 88.92-5.65 89.89-4.4 91.47-3.63 93.04-2.85 95.39-2.85L95.39-2.85Q96.89-2.85 98.14-3.03 99.39-3.2 100.32-3.43 101.24-3.65 102.04-3.95L102.04-3.95ZM87.29-14.75L99.89-14.75Q99.89-15.1 99.74-16.3 99.59-17.5 99.04-18.8 98.49-20.1 97.34-21.13 96.19-22.15 94.29-22.15L94.29-22.15Q92.19-22.15 90.84-21.28 89.49-20.4 88.69-19.2 87.89-18 87.59-16.75 87.29-15.5 87.29-14.75L87.29-14.75ZM121.74 0L121.74-34.1 125.94-34.1 125.94-19.35 143.19-19.35 143.19-34.1 147.39-34.1 147.39 0 143.19 0 143.19-15.6 125.94-15.6 125.94 0 121.74 0ZM169.09-5.85L169.09-11.55Q168.09-11.5 167.19-11.45 166.29-11.4 165.41-11.33 164.54-11.25 163.84-11.15L163.84-11.15Q160.24-10.7 158.74-9.58 157.24-8.45 157.24-6.35L157.24-6.35Q157.24-4.6 158.31-3.73 159.39-2.85 161.14-2.85L161.14-2.85Q163.54-2.85 165.41-3.68 167.29-4.5 169.09-5.85L169.09-5.85ZM169.54 0.4L169.04-2.35Q166.69-1 164.66-0.18 162.64 0.65 160.29 0.65L160.29 0.65Q156.94 0.65 154.96-0.98 152.99-2.6 152.99-6.35L152.99-6.35Q152.99-8.3 153.99-9.75 154.99-11.2 156.61-12.18 158.24-13.15 160.29-13.7 162.34-14.25 164.49-14.4L164.49-14.4Q165.39-14.5 166.84-14.58 168.29-14.65 169.09-14.7L169.09-14.7Q169.09-16.45 168.99-17.82 168.89-19.2 168.39-20.18 167.89-21.15 166.91-21.65 165.94-22.15 164.14-22.15L164.14-22.15Q162.69-22.15 161.34-21.98 159.99-21.8 158.94-21.6L158.94-21.6Q157.69-21.35 156.64-21.05L156.64-21.05 155.84-24.5Q157.09-24.8 158.54-25.05L158.54-25.05Q159.79-25.3 161.44-25.48 163.09-25.65 164.99-25.65L164.99-25.65Q167.54-25.65 169.11-24.9 170.69-24.15 171.56-22.88 172.44-21.6 172.76-19.98 173.09-18.35 173.09-16.55L173.09-16.55 173.09-4.55Q173.09-3.85 173.11-3.08 173.14-2.3 173.21-1.55 173.29-0.8 173.39 0L173.39 0 169.54 0.4ZM180.18 0L180.18-21.1Q180.18-22.25 179.93-24.7L179.93-24.7 183.63-25.2 184.03-21.55 184.08-21.55Q184.98-22.7 185.83-23.55 186.68-24.4 187.61-25.03 188.53-25.65 189.38-25.65L189.38-25.65Q190.53-25.7 192.58-25.4L192.58-25.4 191.68-21.55Q190.03-21.85 189.38-21.8L189.38-21.8Q188.53-21.8 187.58-21 186.63-20.2 185.93-19.3L185.93-19.3Q185.03-18.2 184.18-16.8L184.18-16.8 184.18 0 180.18 0ZM196.93-1.5L196.93-37.45 200.93-37.9 200.93-23Q202.03-23.75 203.23-24.3L203.23-24.3Q204.23-24.8 205.48-25.23 206.73-25.65 207.98-25.65L207.98-25.65Q210.03-25.65 211.86-24.85 213.68-24.05 215.06-22.45 216.43-20.85 217.23-18.4 218.03-15.95 218.03-12.6L218.03-12.6Q218.03-8.9 217.01-6.38 215.98-3.85 214.26-2.3 212.53-0.75 210.33-0.05 208.13 0.65 205.83 0.65L205.83 0.65Q203.53 0.65 201.86 0.33 200.18 0 199.08-0.4L199.08-0.4Q197.78-0.9 196.93-1.5L196.93-1.5ZM200.93-19.4L200.93-3.7Q201.58-3.45 202.33-3.28 203.08-3.1 203.96-2.98 204.83-2.85 205.83-2.85L205.83-2.85Q208.13-2.85 209.68-3.5 211.23-4.15 212.13-5.4 213.03-6.65 213.41-8.43 213.78-10.2 213.78-12.4L213.78-12.4Q213.78-14.15 213.41-15.9 213.03-17.65 212.23-19.03 211.43-20.4 210.26-21.28 209.08-22.15 207.53-22.15L207.53-22.15Q206.48-22.15 205.33-21.73 204.18-21.3 203.18-20.75L203.18-20.75Q202.03-20.15 200.93-19.4L200.93-19.4ZM226.73-12.45L226.73-12.45Q226.73-7.6 228.9-5.23 231.08-2.85 234.78-2.85L234.78-2.85Q238.43-2.85 240.48-5.2 242.53-7.55 242.53-12.25L242.53-12.25Q242.53-17.25 240.35-19.7 238.18-22.15 234.43-22.15L234.43-22.15Q230.68-22.15 228.7-19.73 226.73-17.3 226.73-12.45ZM222.48-12.5L222.48-12.5Q222.48-16.3 223.68-18.82 224.88-21.35 226.73-22.88 228.58-24.4 230.7-25.03 232.83-25.65 234.73-25.65L234.73-25.65Q236.53-25.65 238.65-25.08 240.78-24.5 242.58-23.03 244.38-21.55 245.58-19.07 246.78-16.6 246.78-12.8L246.78-12.8Q246.78-8.85 245.55-6.25 244.33-3.65 242.48-2.13 240.63-0.6 238.48 0.03 236.33 0.65 234.48 0.65L234.48 0.65Q232.58 0.65 230.48 0.05 228.38-0.55 226.6-2.02 224.83-3.5 223.65-6.05 222.48-8.6 222.48-12.5ZM252.63 0L252.63-21.1Q252.63-22.25 252.38-24.7L252.38-24.7 256.08-25.2 256.48-21.55 256.53-21.55Q257.43-22.7 258.28-23.55 259.13-24.4 260.05-25.03 260.98-25.65 261.83-25.65L261.83-25.65Q262.98-25.7 265.03-25.4L265.03-25.4 264.13-21.55Q262.48-21.85 261.83-21.8L261.83-21.8Q260.98-21.8 260.03-21 259.08-20.2 258.38-19.3L258.38-19.3Q257.48-18.2 256.63-16.8L256.63-16.8 256.63 0 252.63 0Z" opacity="1" transform="matrix(1,0,0,1,0,0)" fill="#000000" class="wordmark-text-0" data-fill-palette-color="primary" id="text-0"></path></svg></g></svg></g><g transform="matrix(1,0,0,1,0,44.6857191252888)"><svg viewBox="0 0 244.43135999999998 19.584270513670706" height="19.584270513670706" width="244.43135999999998"><g transform="matrix(1,0,0,1,0,0)"><svg width="244.43135999999998" viewBox="3.49 -35.5 449.09 35.99" height="19.584270513670706" data-palette-color="#8eaec4"><path d="M24.1 0L20.46 0 10.96-14.94 6.64-14.94 6.64 0 3.49 0 3.49-35.01 14.6-35.01Q16.38-35.01 17.94-34.34 19.51-33.67 20.68-32.5 21.85-31.32 22.52-29.75 23.19-28.17 23.19-26.39L23.19-26.39 23.19-23.56Q23.19-21.78 22.52-20.2 21.85-18.63 20.68-17.46 19.51-16.28 17.94-15.61 16.38-14.94 14.6-14.94L14.6-14.94 24.1 0ZM20.04-23.56L20.04-26.39Q20.04-27.56 19.6-28.58 19.17-29.59 18.41-30.36 17.65-31.13 16.64-31.57 15.63-32.01 14.45-32.01L14.45-32.01 6.64-32.01 6.64-17.94 14.45-17.94Q15.63-17.94 16.64-18.38 17.65-18.82 18.41-19.59 19.17-20.36 19.6-21.37 20.04-22.39 20.04-23.56L20.04-23.56ZM45.8-6.86L45.8-6.86Q45.8-5.35 45.22-4 44.65-2.66 43.65-1.66 42.65-0.66 41.31-0.09 39.96 0.49 38.45 0.49L38.45 0.49 36.45 0.49Q34.93 0.49 33.59-0.09 32.25-0.66 31.25-1.66 30.25-2.66 29.67-4 29.1-5.35 29.1-6.86L29.1-6.86 29.1-18.14Q29.1-19.65 29.67-21 30.25-22.34 31.25-23.34 32.25-24.34 33.59-24.91 34.93-25.49 36.45-25.49L36.45-25.49 38.45-25.49Q39.96-25.49 41.31-24.91 42.65-24.34 43.65-23.34 44.65-22.34 45.22-21 45.8-19.65 45.8-18.14L45.8-18.14 45.8-12.26 32.1-12.26 32.1-6.69Q32.1-5.79 32.44-4.99 32.79-4.2 33.37-3.61 33.96-3.03 34.75-2.69 35.54-2.34 36.45-2.34L36.45-2.34 38.45-2.34Q39.35-2.34 40.15-2.69 40.94-3.03 41.53-3.61 42.11-4.2 42.45-4.99 42.8-5.79 42.8-6.69L42.8-6.69 42.8-8.35 45.8-7.86 45.8-6.86ZM42.8-14.6L42.8-18.31Q42.8-19.21 42.45-20.01 42.11-20.8 41.53-21.39 40.94-21.97 40.15-22.31 39.35-22.66 38.45-22.66L38.45-22.66 36.45-22.66Q35.54-22.66 34.75-22.31 33.96-21.97 33.37-21.39 32.79-20.8 32.44-20.01 32.1-19.21 32.1-18.31L32.1-18.31 32.1-14.6 42.8-14.6ZM68.99-6.35L68.99-6.35Q68.99-4.83 68.38-3.58 67.77-2.32 66.72-1.42 65.67-0.51 64.29-0.01 62.91 0.49 61.4 0.49L61.4 0.49 59.39 0.49Q57.88 0.49 56.5-0.09 55.12-0.66 54.08-1.66 53.05-2.66 52.42-4 51.8-5.35 51.8-6.86L51.8-6.86 51.8-7.86 54.8-8.35 54.8-6.69Q54.8-5.79 55.18-4.99 55.56-4.2 56.2-3.61 56.83-3.03 57.66-2.69 58.49-2.34 59.39-2.34L59.39-2.34 61.4-2.34Q62.3-2.34 63.13-2.61 63.96-2.88 64.61-3.38 65.25-3.88 65.63-4.59 66.01-5.3 66.01-6.2L66.01-6.2Q66.01-7.54 65.42-8.4 64.84-9.25 63.87-9.83 62.91-10.4 61.68-10.78 60.44-11.16 59.15-11.54 57.86-11.91 56.62-12.4 55.39-12.89 54.43-13.68 53.46-14.48 52.88-15.67 52.29-16.87 52.29-18.65L52.29-18.65Q52.29-20.17 52.88-21.42 53.46-22.68 54.46-23.58 55.46-24.49 56.79-24.99 58.12-25.49 59.64-25.49L59.64-25.49 61.4-25.49Q62.91-25.49 64.25-24.91 65.6-24.34 66.6-23.34 67.6-22.34 68.17-21 68.75-19.65 68.75-18.14L68.75-18.14 68.75-18.04 65.74-17.55 65.74-18.31Q65.74-19.21 65.4-20.01 65.06-20.8 64.47-21.39 63.89-21.97 63.09-22.31 62.3-22.66 61.4-22.66L61.4-22.66 59.64-22.66Q58.74-22.66 57.94-22.39 57.15-22.12 56.56-21.62 55.98-21.12 55.63-20.41 55.29-19.7 55.29-18.8L55.29-18.8Q55.29-17.5 55.88-16.69 56.46-15.87 57.43-15.31 58.39-14.75 59.63-14.37 60.86-13.99 62.14-13.59 63.42-13.18 64.66-12.67 65.89-12.16 66.85-11.35 67.82-10.55 68.4-9.34 68.99-8.13 68.99-6.35ZM91.45-6.86L91.45-6.86Q91.45-5.35 90.87-4 90.3-2.66 89.3-1.66 88.3-0.66 86.96-0.09 85.61 0.49 84.1 0.49L84.1 0.49 82.1 0.49Q80.58 0.49 79.24-0.09 77.9-0.66 76.9-1.66 75.9-2.66 75.32-4 74.75-5.35 74.75-6.86L74.75-6.86 74.75-18.14Q74.75-19.65 75.32-21 75.9-22.34 76.9-23.34 77.9-24.34 79.24-24.91 80.58-25.49 82.1-25.49L82.1-25.49 84.1-25.49Q85.61-25.49 86.96-24.91 88.3-24.34 89.3-23.34 90.3-22.34 90.87-21 91.45-19.65 91.45-18.14L91.45-18.14 91.45-12.26 77.75-12.26 77.75-6.69Q77.75-5.79 78.09-4.99 78.43-4.2 79.02-3.61 79.61-3.03 80.4-2.69 81.19-2.34 82.1-2.34L82.1-2.34 84.1-2.34Q85-2.34 85.8-2.69 86.59-3.03 87.18-3.61 87.76-4.2 88.1-4.99 88.44-5.79 88.44-6.69L88.44-6.69 88.44-8.35 91.45-7.86 91.45-6.86ZM88.44-14.6L88.44-18.31Q88.44-19.21 88.1-20.01 87.76-20.8 87.18-21.39 86.59-21.97 85.8-22.31 85-22.66 84.1-22.66L84.1-22.66 82.1-22.66Q81.19-22.66 80.4-22.31 79.61-21.97 79.02-21.39 78.43-20.8 78.09-20.01 77.75-19.21 77.75-18.31L77.75-18.31 77.75-14.6 88.44-14.6ZM114.15 0L113.15 0 111.49-2.49Q110.46-1.15 108.93-0.33 107.39 0.49 105.56 0.49L105.56 0.49 104.8 0.49Q103.29 0.49 101.94-0.09 100.6-0.66 99.6-1.66 98.6-2.66 98.02-4 97.45-5.35 97.45-6.86L97.45-6.86 97.45-7.1Q97.45-8.62 98.02-9.96 98.6-11.3 99.6-12.3 100.6-13.31 101.94-13.88 103.29-14.45 104.8-14.45L104.8-14.45 111.15-14.45 111.15-18.31Q111.15-19.21 110.81-20.01 110.46-20.8 109.88-21.39 109.29-21.97 108.5-22.31 107.7-22.66 106.8-22.66L106.8-22.66 105.04-22.66Q104.14-22.66 103.35-22.31 102.55-21.97 101.97-21.39 101.38-20.8 101.04-20.01 100.7-19.21 100.7-18.31L100.7-18.31 100.7-17.41 97.7-17.9 97.7-18.14Q97.7-19.65 98.27-21 98.84-22.34 99.84-23.34 100.84-24.34 102.19-24.91 103.53-25.49 105.04-25.49L105.04-25.49 106.8-25.49Q108.32-25.49 109.66-24.91 111-24.34 112-23.34 113-22.34 113.58-21 114.15-19.65 114.15-18.14L114.15-18.14 114.15 0ZM111.15-6.69L111.15-12.11 104.8-12.11Q103.9-12.11 103.1-11.77 102.31-11.43 101.72-10.83 101.14-10.23 100.8-9.44 100.45-8.64 100.45-7.74L100.45-7.74 100.45-6.69Q100.45-5.79 100.8-4.99 101.14-4.2 101.72-3.61 102.31-3.03 103.1-2.69 103.9-2.34 104.8-2.34L104.8-2.34 106.8-2.34Q107.7-2.34 108.5-2.69 109.29-3.03 109.88-3.61 110.46-4.2 110.81-4.99 111.15-5.79 111.15-6.69L111.15-6.69ZM130.51-22.14L127.5-22.14Q126.6-22.14 125.81-21.8 125.01-21.46 124.43-20.87 123.84-20.29 123.5-19.49 123.16-18.7 123.16-17.8L123.16-17.8 123.16 0 120.15 0 120.15-25 121.15-25 122.79-22.46Q123.82-23.85 125.37-24.67 126.92-25.49 128.75-25.49L128.75-25.49 130.51-25.49 130.51-22.14ZM151.21-6.86L151.21-6.86Q151.21-5.35 150.63-4 150.06-2.66 149.06-1.66 148.06-0.66 146.71-0.09 145.37 0.49 143.86 0.49L143.86 0.49 141.86 0.49Q140.34 0.49 139-0.09 137.66-0.66 136.65-1.66 135.65-2.66 135.08-4 134.51-5.35 134.51-6.86L134.51-6.86 134.51-18.14Q134.51-19.65 135.08-21 135.65-22.34 136.65-23.34 137.66-24.34 139-24.91 140.34-25.49 141.86-25.49L141.86-25.49 143.86-25.49Q145.37-25.49 146.71-24.91 148.06-24.34 149.06-23.34 150.06-22.34 150.63-21 151.21-19.65 151.21-18.14L151.21-18.14 151.21-17.14 148.2-16.65 148.2-18.31Q148.2-19.21 147.86-20.01 147.52-20.8 146.93-21.39 146.35-21.97 145.55-22.31 144.76-22.66 143.86-22.66L143.86-22.66 141.86-22.66Q140.95-22.66 140.16-22.31 139.36-21.97 138.78-21.39 138.19-20.8 137.85-20.01 137.51-19.21 137.51-18.31L137.51-18.31 137.51-6.69Q137.51-5.79 137.85-4.99 138.19-4.2 138.78-3.61 139.36-3.03 140.16-2.69 140.95-2.34 141.86-2.34L141.86-2.34 143.86-2.34Q144.76-2.34 145.55-2.69 146.35-3.03 146.93-3.61 147.52-4.2 147.86-4.99 148.2-5.79 148.2-6.69L148.2-6.69 148.2-8.35 151.21-7.86 151.21-6.86ZM173.91 0L170.91 0 170.91-18.31Q170.91-19.21 170.56-20.01 170.22-20.8 169.64-21.39 169.05-21.97 168.26-22.31 167.46-22.66 166.56-22.66L166.56-22.66 164.56-22.66Q163.65-22.66 162.86-22.31 162.07-21.97 161.48-21.39 160.9-20.8 160.55-20.01 160.21-19.21 160.21-18.31L160.21-18.31 160.21 0 157.21 0 157.21-35.01 160.21-35.01 160.21-22.9Q161.24-24.12 162.68-24.8 164.12-25.49 165.8-25.49L165.8-25.49 166.56-25.49Q168.07-25.49 169.42-24.91 170.76-24.34 171.76-23.34 172.76-22.34 173.33-21 173.91-19.65 173.91-18.14L173.91-18.14 173.91 0ZM184.16 0L180.4 0 180.4-3.76 184.16-3.76 184.16 0ZM222.34-9.16L222.34-8.11Q222.34-6.32 221.62-4.76 220.9-3.2 219.69-2.03 218.48-0.85 216.88-0.18 215.28 0.49 213.5 0.49L213.5 0.49 210.99 0.49Q209.2 0.49 207.6-0.18 206.01-0.85 204.8-2.03 203.59-3.2 202.87-4.76 202.15-6.32 202.15-8.11L202.15-8.11 202.15-9.5 205.3-10.01 205.3-8.11Q205.3-6.93 205.77-5.92 206.25-4.91 207.06-4.14 207.86-3.37 208.92-2.93 209.98-2.49 211.16-2.49L211.16-2.49 213.35-2.49Q214.53-2.49 215.58-2.93 216.63-3.37 217.43-4.14 218.24-4.91 218.71-5.92 219.19-6.93 219.19-8.11L219.19-8.11 219.19-9.16Q219.19-10.96 218.48-12.16 217.77-13.35 216.6-14.2 215.43-15.04 213.95-15.63 212.48-16.21 210.91-16.8 209.35-17.38 207.87-18.09 206.4-18.8 205.22-19.86 204.05-20.92 203.34-22.46 202.64-24 202.64-26.25L202.64-26.25 202.64-26.9Q202.64-28.69 203.31-30.25 203.98-31.81 205.15-32.98 206.32-34.16 207.9-34.83 209.47-35.5 211.25-35.5L211.25-35.5 213.5-35.5Q215.28-35.5 216.85-34.83 218.41-34.16 219.58-32.98 220.75-31.81 221.42-30.25 222.09-28.69 222.09-26.9L222.09-26.9 222.09-26 218.94-25.49 218.94-26.9Q218.94-28.08 218.51-29.09 218.07-30.1 217.31-30.86 216.55-31.62 215.54-32.06 214.53-32.5 213.35-32.5L213.35-32.5 211.4-32.5Q210.23-32.5 209.22-32.06 208.2-31.62 207.43-30.86 206.66-30.1 206.23-29.09 205.79-28.08 205.79-26.9L205.79-26.9 205.79-26.25Q205.79-24.56 206.49-23.41 207.2-22.27 208.37-21.45 209.55-20.63 211.02-20.03 212.5-19.43 214.06-18.81 215.62-18.19 217.1-17.44 218.58-16.7 219.75-15.61 220.92-14.53 221.63-12.96 222.34-11.4 222.34-9.16L222.34-9.16ZM244.8 0L243.8 0 242.14-2.49Q241.11-1.15 239.57-0.33 238.03 0.49 236.2 0.49L236.2 0.49 235.45 0.49Q233.93 0.49 232.59-0.09 231.25-0.66 230.25-1.66 229.24-2.66 228.67-4 228.1-5.35 228.1-6.86L228.1-6.86 228.1-7.1Q228.1-8.62 228.67-9.96 229.24-11.3 230.25-12.3 231.25-13.31 232.59-13.88 233.93-14.45 235.45-14.45L235.45-14.45 241.79-14.45 241.79-18.31Q241.79-19.21 241.45-20.01 241.11-20.8 240.52-21.39 239.94-21.97 239.14-22.31 238.35-22.66 237.45-22.66L237.45-22.66 235.69-22.66Q234.79-22.66 233.99-22.31 233.2-21.97 232.61-21.39 232.03-20.8 231.69-20.01 231.34-19.21 231.34-18.31L231.34-18.31 231.34-17.41 228.34-17.9 228.34-18.14Q228.34-19.65 228.92-21 229.49-22.34 230.49-23.34 231.49-24.34 232.83-24.91 234.18-25.49 235.69-25.49L235.69-25.49 237.45-25.49Q238.96-25.49 240.3-24.91 241.65-24.34 242.65-23.34 243.65-22.34 244.22-21 244.8-19.65 244.8-18.14L244.8-18.14 244.8 0ZM241.79-6.69L241.79-12.11 235.45-12.11Q234.54-12.11 233.75-11.77 232.96-11.43 232.37-10.83 231.78-10.23 231.44-9.44 231.1-8.64 231.1-7.74L231.1-7.74 231.1-6.69Q231.1-5.79 231.44-4.99 231.78-4.2 232.37-3.61 232.96-3.03 233.75-2.69 234.54-2.34 235.45-2.34L235.45-2.34 237.45-2.34Q238.35-2.34 239.14-2.69 239.94-3.03 240.52-3.61 241.11-4.2 241.45-4.99 241.79-5.79 241.79-6.69L241.79-6.69ZM267.5-25L258.64 0 257.15 0 248.29-25 251.29-25 257.81-6.05 257.9-4.76 258-6.05 264.5-25 267.5-25ZM287.69-6.86L287.69-6.86Q287.69-5.35 287.11-4 286.54-2.66 285.54-1.66 284.54-0.66 283.2-0.09 281.85 0.49 280.34 0.49L280.34 0.49 278.34 0.49Q276.82 0.49 275.48-0.09 274.14-0.66 273.14-1.66 272.14-2.66 271.56-4 270.99-5.35 270.99-6.86L270.99-6.86 270.99-18.14Q270.99-19.65 271.56-21 272.14-22.34 273.14-23.34 274.14-24.34 275.48-24.91 276.82-25.49 278.34-25.49L278.34-25.49 280.34-25.49Q281.85-25.49 283.2-24.91 284.54-24.34 285.54-23.34 286.54-22.34 287.11-21 287.69-19.65 287.69-18.14L287.69-18.14 287.69-12.26 273.99-12.26 273.99-6.69Q273.99-5.79 274.33-4.99 274.67-4.2 275.26-3.61 275.85-3.03 276.64-2.69 277.43-2.34 278.34-2.34L278.34-2.34 280.34-2.34Q281.24-2.34 282.04-2.69 282.83-3.03 283.41-3.61 284-4.2 284.34-4.99 284.68-5.79 284.68-6.69L284.68-6.69 284.68-8.35 287.69-7.86 287.69-6.86ZM284.68-14.6L284.68-18.31Q284.68-19.21 284.34-20.01 284-20.8 283.41-21.39 282.83-21.97 282.04-22.31 281.24-22.66 280.34-22.66L280.34-22.66 278.34-22.66Q277.43-22.66 276.64-22.31 275.85-21.97 275.26-21.39 274.67-20.8 274.33-20.01 273.99-19.21 273.99-18.31L273.99-18.31 273.99-14.6 284.68-14.6ZM297.45 0L293.69 0 293.69-3.76 297.45-3.76 297.45 0ZM336.53 0L332.89 0 323.4-14.94 319.08-14.94 319.08 0 315.93 0 315.93-35.01 327.04-35.01Q328.82-35.01 330.38-34.34 331.94-33.67 333.11-32.5 334.29-31.32 334.96-29.75 335.63-28.17 335.63-26.39L335.63-26.39 335.63-23.56Q335.63-21.78 334.96-20.2 334.29-18.63 333.11-17.46 331.94-16.28 330.38-15.61 328.82-14.94 327.04-14.94L327.04-14.94 336.53 0ZM332.48-23.56L332.48-26.39Q332.48-27.56 332.04-28.58 331.6-29.59 330.84-30.36 330.09-31.13 329.07-31.57 328.06-32.01 326.89-32.01L326.89-32.01 319.08-32.01 319.08-17.94 326.89-17.94Q328.06-17.94 329.07-18.38 330.09-18.82 330.84-19.59 331.6-20.36 332.04-21.37 332.48-22.39 332.48-23.56L332.48-23.56ZM358.23-6.86L358.23-6.86Q358.23-5.35 357.66-4 357.09-2.66 356.09-1.66 355.08-0.66 353.74-0.09 352.4 0.49 350.89 0.49L350.89 0.49 348.88 0.49Q347.37 0.49 346.03-0.09 344.68-0.66 343.68-1.66 342.68-2.66 342.11-4 341.53-5.35 341.53-6.86L341.53-6.86 341.53-18.14Q341.53-19.65 342.11-21 342.68-22.34 343.68-23.34 344.68-24.34 346.03-24.91 347.37-25.49 348.88-25.49L348.88-25.49 350.89-25.49Q352.4-25.49 353.74-24.91 355.08-24.34 356.09-23.34 357.09-22.34 357.66-21 358.23-19.65 358.23-18.14L358.23-18.14 358.23-12.26 344.54-12.26 344.54-6.69Q344.54-5.79 344.88-4.99 345.22-4.2 345.81-3.61 346.39-3.03 347.19-2.69 347.98-2.34 348.88-2.34L348.88-2.34 350.89-2.34Q351.79-2.34 352.58-2.69 353.38-3.03 353.96-3.61 354.55-4.2 354.89-4.99 355.23-5.79 355.23-6.69L355.23-6.69 355.23-8.35 358.23-7.86 358.23-6.86ZM355.23-14.6L355.23-18.31Q355.23-19.21 354.89-20.01 354.55-20.8 353.96-21.39 353.38-21.97 352.58-22.31 351.79-22.66 350.89-22.66L350.89-22.66 348.88-22.66Q347.98-22.66 347.19-22.31 346.39-21.97 345.81-21.39 345.22-20.8 344.88-20.01 344.54-19.21 344.54-18.31L344.54-18.31 344.54-14.6 355.23-14.6ZM380.94-25L372.07 0 370.58 0 361.72-25 364.73-25 371.24-6.05 371.34-4.76 371.44-6.05 377.93-25 380.94-25ZM388.67-31.01L385.18-31.01 385.18-35.01 388.67-35.01 388.67-31.01ZM388.43 0L385.43 0 385.43-25 388.43-25 388.43 0ZM412.13-6.86L412.13-6.86Q412.13-5.35 411.56-4 410.99-2.66 409.98-1.66 408.98-0.66 407.64-0.09 406.3 0.49 404.78 0.49L404.78 0.49 402.78 0.49Q401.27 0.49 399.93-0.09 398.58-0.66 397.58-1.66 396.58-2.66 396.01-4 395.43-5.35 395.43-6.86L395.43-6.86 395.43-18.14Q395.43-19.65 396.01-21 396.58-22.34 397.58-23.34 398.58-24.34 399.93-24.91 401.27-25.49 402.78-25.49L402.78-25.49 404.78-25.49Q406.3-25.49 407.64-24.91 408.98-24.34 409.98-23.34 410.99-22.34 411.56-21 412.13-19.65 412.13-18.14L412.13-18.14 412.13-12.26 398.44-12.26 398.44-6.69Q398.44-5.79 398.78-4.99 399.12-4.2 399.71-3.61 400.29-3.03 401.09-2.69 401.88-2.34 402.78-2.34L402.78-2.34 404.78-2.34Q405.69-2.34 406.48-2.69 407.27-3.03 407.86-3.61 408.45-4.2 408.79-4.99 409.13-5.79 409.13-6.69L409.13-6.69 409.13-8.35 412.13-7.86 412.13-6.86ZM409.13-14.6L409.13-18.31Q409.13-19.21 408.79-20.01 408.45-20.8 407.86-21.39 407.27-21.97 406.48-22.31 405.69-22.66 404.78-22.66L404.78-22.66 402.78-22.66Q401.88-22.66 401.09-22.31 400.29-21.97 399.71-21.39 399.12-20.8 398.78-20.01 398.44-19.21 398.44-18.31L398.44-18.31 398.44-14.6 409.13-14.6ZM447.53-25L439.18 0 437.55 0 431.69-18.85 431.59-20.14 431.49-18.85 425.63 0 423.97 0 415.62-25 418.67-25 424.63-6.1 424.73-4.81 424.83-6.1 430.68-25 432.49-25 438.33-6.1 438.42-4.81 438.52-6.1 444.48-25 447.53-25ZM452.58 0L448.82 0 448.82-3.76 452.58-3.76 452.58 0Z" opacity="1" transform="matrix(1,0,0,1,0,0)" fill="#000000" class="slogan-text-1" data-fill-palette-color="secondary" id="text-1"></path></svg></g></svg></g></svg></g></svg></g><g></g></svg></g></svg></g></svg></g><g><path d="M82.51 82.931A122.216 122.216 0 0 1 313.01 82.931L309.75 82.931A118.956 118.956 0 0 0 85.77 82.931L82.51 82.931M82.51 164.269A122.216 122.216 0 0 0 313.01 164.269L309.75 164.269A118.956 118.956 0 0 1 85.77 164.269L82.51 164.269" fill="#000000" stroke="transparent" data-fill-palette-color="tertiary"></path></g></svg></g><defs></defs></svg><rect width="395.52" height="247.2" fill="none" stroke="none" visibility="hidden"></rect></g></svg></g></svg>