<svg width="390" height="442" viewBox="0 0 390 442" fill="none" xmlns="http://www.w3.org/2000/svg">
<g clip-path="url(#clip0_21_53)">
<path d="M74.6554 173.346C74.2045 172.686 71.3626 168.532 69.2571 168.953C65.266 169.751 67.431 186.284 61.6288 187.933C60.3554 188.295 58.5631 187.978 54.56 188.979C52.9674 189.377 52.1418 189.705 51.8855 190.364C51.5217 191.299 52.6218 192.085 54.2555 194.365C56.7056 197.783 55.9523 198.416 58.1068 200.866C59.7064 202.685 60.9616 203.291 60.7155 204.089C60.3674 205.219 57.629 204.733 56.9712 206.028C56.3002 207.349 58.2486 209.633 59.9338 211.029C63.0962 213.648 66.2479 213.901 69.1341 214.76C72.2706 215.693 76.5602 217.779 81.0006 222.992L116.487 267.9C113.625 266.886 108.049 264.803 100.443 261.241C94.0272 258.235 87.6669 254.814 81.5375 251.069C78.8945 249.455 76.5847 247.952 74.5098 246.552L74.7203 246.655L73.7067 243.226C73.3178 241.863 73.0629 240.75 73.6025 239.854C73.9002 239.376 74.4618 238.881 75.1162 238.309C75.8667 237.654 76.7188 236.912 77.5489 235.882C78.3183 234.956 78.4934 234.13 78.1091 233.438C77.9788 233.202 77.8075 233.035 77.6269 232.912C77.8333 232.606 78.0682 232.246 78.2773 231.812C78.7202 230.891 78.8286 230.103 78.9069 229.516C79.2285 227.157 78.8198 225.767 77.6877 225.383C77.2091 225.222 76.777 225.296 76.4154 225.455C76.3885 224.971 76.3196 224.401 76.1309 223.788C75.5236 221.817 74.6783 220.818 73.5535 220.736C71.9816 220.62 71.1888 222.244 70.2726 224.12C69.8619 224.954 68.7842 227.175 68.2215 227.177C68.1518 227.176 67.9533 227.136 67.7773 227.1C67.2952 227.002 66.5683 226.854 65.4334 226.825C64.7973 226.808 63.8367 226.782 63.2491 227.519C62.7255 228.225 62.9838 228.975 63.2216 229.575C63.3004 229.773 63.3946 230.008 63.489 230.293C63.7046 230.944 63.7407 231.294 63.7761 231.634C63.8219 232.076 63.8695 232.535 64.2084 233.291C64.2371 233.352 64.2632 233.409 64.29 233.466C63.9715 233.534 63.6376 233.677 63.3572 233.969C62.3018 235.043 63.2864 236.821 63.7551 237.528C64.5982 238.795 65.6665 239.403 66.5257 239.892C66.7423 240.016 66.9552 240.137 67.161 240.268C68.2269 240.946 69.111 241.975 69.8194 243.298C68.9814 242.701 68.1802 242.126 67.4282 241.586C64.7346 239.648 62.202 237.759 59.7331 235.919C57.1943 234.026 54.7083 232.173 52.1792 230.366L52.3386 229.716L51.7276 230.048C47.7395 227.212 43.6319 224.489 39.0201 221.905C38.8311 221.799 38.6075 221.675 38.377 221.549L38.1574 220.806C37.7685 219.443 37.5138 218.33 38.0532 217.434C38.3509 216.955 38.9126 216.461 39.567 215.889C40.3173 215.234 41.1696 214.492 41.9996 213.462C42.769 212.536 42.9442 211.71 42.5598 211.017C42.4295 210.782 42.2583 210.615 42.0777 210.492C42.284 210.186 42.519 209.825 42.728 209.392C43.1709 208.471 43.2794 207.683 43.3576 207.096C43.6792 204.737 43.2705 203.347 42.1384 202.963C41.6599 202.802 41.2278 202.876 40.8661 203.035C40.8393 202.551 40.7704 201.981 40.5816 201.367C39.9743 199.397 39.1291 198.398 38.0043 198.316C36.4324 198.2 35.6395 199.824 34.7233 201.7C34.3126 202.534 33.2349 204.755 32.6722 204.757C32.6025 204.756 32.404 204.716 32.2281 204.68C31.7461 204.582 31.019 204.434 29.8842 204.405C29.248 204.388 28.2875 204.362 27.6998 205.098C27.1763 205.804 27.4345 206.555 27.6724 207.155C27.7512 207.353 27.8453 207.588 27.9398 207.873C28.1554 208.524 28.1914 208.874 28.2269 209.214C28.2726 209.656 28.3202 210.115 28.6592 210.871C28.6879 210.932 28.714 210.989 28.7407 211.045C28.4222 211.113 28.0884 211.257 27.8079 211.549C26.7525 212.622 27.7371 214.4 28.206 215.108C29.049 216.374 30.1172 216.983 30.9764 217.472C31.1931 217.596 31.406 217.717 31.6117 217.848C32.2142 218.231 32.7562 218.732 33.2467 219.324C31.6823 218.83 29.876 218.424 27.8392 218.25C25.405 218.041 22.9388 218.195 20.4805 218.696C20.4633 218.523 20.4464 218.353 20.4275 218.164C20.2185 216.05 20.0656 215.173 19.2864 214.351C18.9081 213.95 18.3286 213.508 16.6719 213.004C14.3757 212.305 12.4089 212.199 11.8592 212.183C9.11414 212.11 6.74315 212.047 4.59051 213.595C4.17977 213.888 2.93239 214.777 2.2477 216.344C1.89722 217.137 1.83402 217.781 1.7833 218.299C1.72978 218.839 1.69607 219.197 1.37117 219.698C1.16609 220.017 0.919378 220.278 0.723308 220.487C0.344664 220.907 -0.367047 221.676 0.229437 222.51C0.372778 222.711 0.553943 222.853 0.759848 222.949C0.650584 223.657 0.71721 224.389 1.09214 225.052C1.42807 225.648 2.00708 226.047 3.56703 226.759C5.95394 227.85 7.87761 228.381 8.25965 228.482C10.7355 229.138 11.977 229.467 13.3079 229.42C16.1399 229.314 18.1972 228.493 19.4224 226.978C19.4841 226.904 19.5413 226.829 19.596 226.753C20.4547 225.563 20.5477 224.317 20.6961 222.334C20.7242 221.952 20.7158 221.51 20.68 220.948C23.0021 220.443 25.3292 220.271 27.6197 220.467C32.5779 220.892 36.1012 222.866 37.7933 223.815C42.0075 226.176 45.807 228.669 49.4914 231.262L49.0473 231.503C47.7358 232.2 46.6488 232.713 45.5854 232.452C45.0146 232.304 44.3605 231.922 43.6023 231.475C42.7343 230.963 41.7509 230.38 40.4749 229.891C39.3214 229.43 38.4221 229.481 37.8033 230.004C37.5925 230.182 37.4631 230.379 37.3816 230.574C37.0132 230.464 36.5804 230.343 36.0788 230.264C35.0135 230.098 34.1705 230.199 33.5434 230.277C31.0209 230.585 29.6866 231.307 29.5771 232.428C29.5314 232.902 29.7173 233.274 29.9735 233.561C29.4796 233.708 28.9078 233.915 28.3208 234.241C26.4362 235.29 25.6173 236.308 25.8174 237.346C26.0957 238.797 27.9769 239.102 30.1509 239.454C31.1177 239.614 33.6889 240.026 33.8336 240.534C33.8506 240.597 33.8596 240.787 33.8668 240.955C33.8876 241.416 33.9193 242.111 34.1765 243.145C34.3205 243.724 34.5372 244.599 35.4483 244.944C36.3117 245.238 37.0228 244.814 37.5833 244.447C37.7681 244.326 37.9875 244.181 38.2586 244.023C38.8766 243.663 39.2303 243.542 39.573 243.424C40.0188 243.27 40.4816 243.11 41.1774 242.612C41.2336 242.571 41.2861 242.533 41.3374 242.494C41.4887 242.765 41.722 243.03 42.0946 243.21C43.4734 243.892 45.0632 242.551 45.6764 241.947C46.7728 240.864 47.131 239.743 47.4195 238.842C47.4923 238.615 47.5637 238.392 47.6471 238.172C48.1714 236.793 49.2657 235.518 50.9012 234.38L51.2547 234.134L51.5927 232.757C53.8126 234.357 56.0108 235.992 58.249 237.661C60.7264 239.509 63.2705 241.405 65.9751 243.35C69.5612 245.93 74.0225 249.139 80.2361 252.935C86.44 256.724 92.8788 260.188 99.3769 263.232C105.164 265.942 109.799 267.81 112.979 269.009C103.712 269.588 90.8929 270.276 85.0995 270.373C82.8468 270.411 80.5256 270.379 78.8711 268.922C77.2782 267.519 76.4952 264.964 74.1776 262.298C73.9069 261.986 73.1417 261.128 72.4644 261.28C71.9043 261.405 71.9146 262.106 71.3936 262.231C70.6947 262.397 70.1093 261.271 68.663 260.212C67.6433 259.465 66.7139 259.131 65.9147 258.843C65.6738 258.757 62.0626 257.483 61.3995 258.41C60.9013 259.106 62.4984 260.441 62.0242 261.029C61.5517 261.616 59.8017 260.494 57.161 260.587C56.6848 260.604 53.6838 260.709 53.2972 261.797C52.5644 263.858 61.8688 267.635 61.0603 270.773C60.8828 271.462 60.1995 272.193 59.57 274.319C59.3196 275.164 59.2533 275.638 59.5253 275.946C59.9113 276.382 60.6415 276.104 62.3094 276.012C64.8108 275.874 64.9255 276.403 66.8335 276.121C68.2499 275.912 68.9305 275.511 69.2785 275.854C69.7709 276.34 68.726 277.456 69.2159 278.131C69.716 278.821 71.4769 278.585 72.696 278.215C74.9838 277.52 76.0258 276.146 77.3094 275.07C78.7043 273.9 81.0367 272.533 85.0549 272L113.498 269.202C115.161 269.822 116.386 270.246 117.1 270.492C117.48 270.623 117.724 270.704 117.825 270.747L118.202 270.07L118.624 270.604C118.493 270.43 118.349 270.238 118.211 270.053L118.371 269.764L119.461 269.313C119.314 269.001 119.153 268.865 118.719 268.689L120.905 268.474C120.244 268.524 119.448 268.581 118.598 268.64C118.419 268.572 118.199 268.496 117.924 268.401C117.604 268.291 117.169 268.141 116.649 267.957C108.023 256.329 90.2796 231.691 83.6751 221.607C81.6085 218.452 79.5949 215.137 80.4821 211.498C81.3361 207.994 84.776 204.612 87.0323 198.957C87.2959 198.297 88.0044 196.45 87.1557 195.626C86.4542 194.945 85.3275 195.584 84.6623 194.957C83.7701 194.116 85.0732 192.285 85.5016 189.294C85.8037 187.186 85.5174 185.573 85.2712 184.186C85.1969 183.768 84.0459 177.522 81.9548 177.408C80.3839 177.322 79.6434 180.771 78.268 180.624C76.8977 180.477 77.1561 177.002 74.6554 173.346Z" fill="#F2F2F2"/>
<path d="M365.35 318.554L111.332 285.73C102.83 284.632 95.8136 278.937 93.4548 271.221L35.1136 80.3176C33.1367 73.8473 34.6126 67.1475 39.1628 61.9344C43.713 56.7213 50.4358 54.0272 57.6145 54.5394L313.538 72.8705C322.797 73.5335 330.569 79.6291 332.88 88.0375L389.315 293.434C391.116 299.989 389.315 306.917 384.497 311.967C380.348 316.316 374.465 318.746 368.332 318.746C367.343 318.746 366.347 318.682 365.35 318.554Z" fill="#E6E6E6"/>
<path d="M301.116 275.846L220.547 265.435C217.85 265.087 215.625 263.28 214.877 260.833L196.372 200.283C195.745 198.231 196.213 196.106 197.657 194.452C199.1 192.799 201.232 191.944 203.509 192.107L284.682 197.921C287.619 198.131 290.084 200.065 290.817 202.732L308.717 267.879C309.288 269.958 308.717 272.155 307.188 273.757C305.873 275.136 304.007 275.907 302.061 275.907C301.748 275.907 301.432 275.887 301.116 275.846Z" fill="white"/>
<path d="M293.908 107.856L144.344 94.9847C140.574 94.6602 137.639 93.0401 137.803 91.3734C137.967 89.7067 141.169 88.6152 144.939 88.9397L294.503 101.811C298.273 102.135 301.206 103.755 301.042 105.421C300.878 107.088 297.678 108.18 293.908 107.856Z" fill="white"/>
<path d="M302.063 144.608L152.5 131.737C148.729 131.412 145.795 129.792 145.959 128.125C146.123 126.459 149.324 125.367 153.095 125.692L302.658 138.563C306.429 138.887 309.362 140.507 309.198 142.173C309.034 143.84 305.834 144.932 302.063 144.608Z" fill="white"/>
<path d="M304.943 176.64L155.38 163.769C151.61 163.445 148.675 161.824 148.839 160.158C149.003 158.491 152.205 157.4 155.975 157.724L305.539 170.595C309.309 170.92 312.242 172.539 312.078 174.206C311.914 175.872 308.714 176.965 304.943 176.64Z" fill="white"/>
<path d="M214.824 161.167C218.578 157.344 223.731 156.055 226.333 158.289C228.936 160.523 228.002 165.433 224.246 169.258C222.768 170.805 220.915 171.998 218.843 172.739L202.718 188.753L194.841 181.518L211.574 166.499C212.186 164.505 213.3 162.677 214.824 161.167Z" fill="#FFB6B6"/>
<path d="M122.893 164.731C122.893 164.731 132.316 156.674 143.591 163.709C154.867 170.744 181.125 188.738 181.125 188.738L199.523 167.404L214.022 179.69C214.022 179.69 188.448 221.804 171.925 212.535C155.402 203.267 118.516 176.807 120.191 171.333C121.866 165.858 122.893 164.731 122.893 164.731Z" fill="#6C63FF"/>
<path d="M192.664 361.28L177.651 387.433L165.287 373.444L179.51 355.474L192.664 361.28Z" fill="#FFB6B6"/>
<path d="M182.956 383.818L176.604 415.906C176.604 415.906 172.34 427.034 165.487 415.731C158.634 404.427 146.225 381.04 153.359 376.754C160.493 372.468 169.109 369.005 169.109 369.005L182.956 383.818Z" fill="#2F2E41"/>
<path d="M201.523 389.761L217.362 416.416L197.564 418.637L188.852 397.165L201.523 389.761Z" fill="#FFB6B6"/>
<path d="M117.577 148.392C117.577 148.392 115.994 163.2 113.618 164.681C111.242 166.162 141.348 164.681 141.348 164.681L132.624 148.392H117.577Z" fill="#FFB6B6"/>
<path d="M150.041 169.135L138.96 160.979H111.865L93.8191 175.046L105.302 225.023L99.7587 249.456L170.242 251.678L157.571 229.466C157.571 229.466 172.617 214.658 167.866 205.033C163.114 195.407 150.041 169.135 150.041 169.135Z" fill="#6C63FF"/>
<path d="M163.114 245.754L173.409 250.937C173.409 250.937 228.845 299.803 224.094 314.611C219.342 329.419 187.664 371.622 187.664 371.622L172.617 364.218L194.792 319.054L152.423 279.442L175.167 316.925L207.463 396.055L188.456 403.459L139.356 310.909C139.356 310.909 98.9668 284.995 96.5909 268.707C94.2151 252.418 99.7587 249.456 99.7587 249.456L163.114 245.754Z" fill="#2F2E41"/>
<path d="M216.966 410.122L243.101 433.075C243.101 433.075 251.02 442.7 236.765 441.959C222.51 441.219 194 438.257 194 430.113C194 421.969 195.584 413.084 195.584 413.084L216.966 410.122Z" fill="#2F2E41"/>
<path d="M125.497 152.094C135.556 152.094 143.711 144.47 143.711 135.065C143.711 125.66 135.556 118.036 125.497 118.036C115.437 118.036 107.282 125.66 107.282 135.065C107.282 144.47 115.437 152.094 125.497 152.094Z" fill="#FFB6B6"/>
<path d="M204.514 203.014L189.502 245.754C189.102 246.894 188.063 247.734 186.799 247.939L158.091 252.607C155.517 253.025 153.389 250.735 154.194 248.411L169.185 205.089C169.59 203.92 170.666 203.065 171.966 202.88L200.693 198.793C203.251 198.429 205.321 200.715 204.514 203.014Z" fill="white"/>
<path d="M157.482 253.396C156.26 253.396 155.1 252.908 154.277 252.022C153.289 250.959 152.977 249.523 153.44 248.183L168.432 204.861C168.932 203.416 170.241 202.376 171.847 202.148L200.574 198.061C202.048 197.851 203.506 198.362 204.47 199.427C205.434 200.492 205.732 201.919 205.266 203.245L190.255 245.985C189.762 247.387 188.491 248.415 186.935 248.669L158.227 253.336C157.978 253.377 157.729 253.396 157.482 253.396ZM201.223 199.496C201.087 199.496 200.95 199.505 200.813 199.524L172.085 203.612C171.075 203.755 170.253 204.409 169.939 205.317L154.987 248.526C154.712 249.319 154.802 250.21 155.329 250.882C155.945 251.668 156.947 252.038 157.956 251.877L169.476 250.004C181.029 248.126 190.534 240.444 194.192 230.027L203.733 202.864C203.973 202.179 203.943 201.417 203.564 200.79C203.064 199.966 202.174 199.496 201.223 199.496Z" fill="#3F3D56"/>
<path d="M160.691 236.31C166.239 236.502 170.63 239.334 170.499 242.635C170.368 245.936 165.764 248.455 160.214 248.262C157.996 248.214 155.823 247.669 153.876 246.674L130.38 245.583L131.163 235.286L154.243 237.455C156.263 236.597 158.475 236.205 160.691 236.31Z" fill="#FFB6B6"/>
<path d="M98.1748 173.195C98.1748 173.195 110.846 174.676 112.43 187.263C114.014 199.85 116.39 230.206 116.39 230.206L145.691 229.466L145.09 247.751C145.09 247.751 94.2151 256.86 91.0473 239.091C87.8796 221.321 85.5037 177.912 91.0473 175.554C96.591 173.195 98.1748 173.195 98.1748 173.195Z" fill="#6C63FF"/>
<path d="M262.717 54.3558L256.199 51.4693C258.872 54.9572 261.176 60.4044 262.409 64.739C264.497 60.7013 267.863 55.7609 271.195 52.8098L264.306 54.4666C268.551 35.0179 284.516 21.0556 302.798 21.0556L303.057 20.3531C283.961 20.3531 267.05 34.1218 262.717 54.3558Z" fill="#3F3D56"/>
<path d="M292.715 83.9893H251.534C249.787 83.9893 248.366 82.6607 248.366 81.0277C248.366 79.3948 249.787 78.0662 251.534 78.0662H292.715C294.461 78.0662 295.883 79.3948 295.883 81.0277C295.883 82.6607 294.461 83.9893 292.715 83.9893Z" fill="#6C63FF"/>
<path d="M199.1 209.621L172.095 211.749C171.414 211.802 170.814 211.328 170.756 210.692C170.699 210.055 171.206 209.494 171.887 209.44L198.892 207.313C199.573 207.259 200.173 207.733 200.231 208.37C200.288 209.006 199.781 209.568 199.1 209.621Z" fill="#3F3D56"/>
<path d="M196.724 217.025L169.719 219.153C169.038 219.206 168.438 218.732 168.38 218.096C168.323 217.459 168.83 216.898 169.511 216.844L196.516 214.717C197.197 214.663 197.797 215.137 197.855 215.774C197.912 216.41 197.405 216.972 196.724 217.025Z" fill="#3F3D56"/>
<path d="M194.348 224.429L167.343 226.557C166.662 226.61 166.062 226.136 166.004 225.5C165.947 224.863 166.454 224.302 167.135 224.248L194.14 222.121C194.821 222.067 195.421 222.541 195.479 223.178C195.536 223.814 195.029 224.376 194.348 224.429Z" fill="#3F3D56"/>
<path d="M120.622 141.188L133.365 127.509L131.241 121.739L138.081 127.817L141.612 126.92C141.612 126.92 141.582 115.206 131.577 114.677C121.572 114.148 114.395 115.133 114.395 115.133C114.395 115.133 100.09 119.324 99.5306 122.536C98.9712 125.748 90.9572 130.016 90.9572 130.016C90.9572 130.016 84.0037 134.852 87.2542 142.957C90.5048 151.063 97.9221 161.18 92.7877 166.112C87.6533 171.044 80.3977 174.84 83.933 176.733C87.4682 178.626 93.8449 169.751 99.6523 173.299C105.46 176.848 115.273 191.101 124.478 183.74C133.683 176.379 135.385 167.853 135.385 167.853L120.695 154.28C120.695 154.28 111.794 140.087 120.622 141.188Z" fill="#2F2E41"/>
<path d="M323.133 3.42206H283.103C282.094 3.42206 281.272 2.65435 281.272 1.71085C281.272 0.767347 282.094 0 283.103 0H323.133C324.142 0 324.963 0.767354 324.963 1.71086C324.963 2.65436 324.142 3.42206 323.133 3.42206Z" fill="#3F3D56"/>
<path d="M344.613 21.6776H261.622C260.613 21.6776 259.792 20.9099 259.792 19.9664C259.792 19.0229 260.613 18.2556 261.622 18.2556H344.613C345.622 18.2556 346.443 19.0229 346.443 19.9664C346.443 20.9099 345.622 21.6776 344.613 21.6776Z" fill="#3F3D56"/>
</g>
<defs>
<clipPath id="clip0_21_53">
<rect width="390" height="442" fill="white"/>
</clipPath>
</defs>
</svg>
